<mxfile host="app.diagrams.net" modified="2022-02-10T21:51:26.108Z" agent="5.0 (X11; Linux x86_64) AppleWebKit/537.36 (KHTML, like Gecko) Chrome/98.0.4758.80 Safari/537.36" etag="WIa8KQtwhbk8RcUWhHhP" version="16.5.4" type="github">
  <diagram id="Y5Lr0OhhB_XhQnfZ9CLR" name="Page-1">
    <mxGraphModel dx="1422" dy="752" grid="1" gridSize="10" guides="1" tooltips="1" connect="1" arrows="1" fold="1" page="1" pageScale="1" pageWidth="827" pageHeight="1169" math="0" shadow="0">
      <root>
        <mxCell id="0" />
        <mxCell id="1" parent="0" />
        <mxCell id="mlamauV0F4cwYC3OsQqX-9" value="" style="edgeStyle=orthogonalEdgeStyle;rounded=0;orthogonalLoop=1;jettySize=auto;html=1;" edge="1" parent="1" source="mlamauV0F4cwYC3OsQqX-1" target="mlamauV0F4cwYC3OsQqX-3">
          <mxGeometry relative="1" as="geometry" />
        </mxCell>
        <mxCell id="mlamauV0F4cwYC3OsQqX-1" value="Collect Bidder&#39;s Name" style="rounded=1;whiteSpace=wrap;html=1;" vertex="1" parent="1">
          <mxGeometry x="354" y="110" width="120" height="40" as="geometry" />
        </mxCell>
        <mxCell id="mlamauV0F4cwYC3OsQqX-8" value="" style="edgeStyle=orthogonalEdgeStyle;rounded=0;orthogonalLoop=1;jettySize=auto;html=1;" edge="1" parent="1" source="mlamauV0F4cwYC3OsQqX-2" target="mlamauV0F4cwYC3OsQqX-1">
          <mxGeometry relative="1" as="geometry" />
        </mxCell>
        <mxCell id="mlamauV0F4cwYC3OsQqX-2" value="START" style="ellipse;whiteSpace=wrap;html=1;" vertex="1" parent="1">
          <mxGeometry x="354" y="20" width="120" height="40" as="geometry" />
        </mxCell>
        <mxCell id="mlamauV0F4cwYC3OsQqX-10" value="" style="edgeStyle=orthogonalEdgeStyle;rounded=0;orthogonalLoop=1;jettySize=auto;html=1;" edge="1" parent="1" source="mlamauV0F4cwYC3OsQqX-3" target="mlamauV0F4cwYC3OsQqX-4">
          <mxGeometry relative="1" as="geometry" />
        </mxCell>
        <mxCell id="mlamauV0F4cwYC3OsQqX-3" value="Collect Bidder&#39;s Bid" style="rounded=1;whiteSpace=wrap;html=1;" vertex="1" parent="1">
          <mxGeometry x="354" y="200" width="120" height="40" as="geometry" />
        </mxCell>
        <mxCell id="mlamauV0F4cwYC3OsQqX-6" style="edgeStyle=orthogonalEdgeStyle;rounded=0;orthogonalLoop=1;jettySize=auto;html=1;" edge="1" parent="1" source="mlamauV0F4cwYC3OsQqX-4" target="mlamauV0F4cwYC3OsQqX-5">
          <mxGeometry relative="1" as="geometry" />
        </mxCell>
        <mxCell id="mlamauV0F4cwYC3OsQqX-13" value="" style="edgeStyle=orthogonalEdgeStyle;rounded=0;orthogonalLoop=1;jettySize=auto;html=1;" edge="1" parent="1" source="mlamauV0F4cwYC3OsQqX-4" target="mlamauV0F4cwYC3OsQqX-12">
          <mxGeometry relative="1" as="geometry" />
        </mxCell>
        <mxCell id="mlamauV0F4cwYC3OsQqX-4" value="More Bidders?" style="rhombus;whiteSpace=wrap;html=1;" vertex="1" parent="1">
          <mxGeometry x="374" y="280" width="80" height="80" as="geometry" />
        </mxCell>
        <mxCell id="mlamauV0F4cwYC3OsQqX-7" style="edgeStyle=orthogonalEdgeStyle;rounded=0;orthogonalLoop=1;jettySize=auto;html=1;entryX=0;entryY=0.5;entryDx=0;entryDy=0;exitX=0.5;exitY=0;exitDx=0;exitDy=0;" edge="1" parent="1" source="mlamauV0F4cwYC3OsQqX-5" target="mlamauV0F4cwYC3OsQqX-1">
          <mxGeometry relative="1" as="geometry" />
        </mxCell>
        <mxCell id="mlamauV0F4cwYC3OsQqX-5" value="Clear Screen" style="rounded=1;whiteSpace=wrap;html=1;" vertex="1" parent="1">
          <mxGeometry x="200" y="200" width="120" height="40" as="geometry" />
        </mxCell>
        <mxCell id="mlamauV0F4cwYC3OsQqX-11" value="Yes" style="text;html=1;strokeColor=none;fillColor=none;align=center;verticalAlign=middle;whiteSpace=wrap;rounded=0;" vertex="1" parent="1">
          <mxGeometry x="290" y="290" width="60" height="30" as="geometry" />
        </mxCell>
        <mxCell id="mlamauV0F4cwYC3OsQqX-15" value="" style="edgeStyle=orthogonalEdgeStyle;rounded=0;orthogonalLoop=1;jettySize=auto;html=1;" edge="1" parent="1" source="mlamauV0F4cwYC3OsQqX-12" target="mlamauV0F4cwYC3OsQqX-14">
          <mxGeometry relative="1" as="geometry" />
        </mxCell>
        <mxCell id="mlamauV0F4cwYC3OsQqX-12" value="Calculate and display Highest Bidder" style="rounded=1;whiteSpace=wrap;html=1;" vertex="1" parent="1">
          <mxGeometry x="354" y="390" width="120" height="40" as="geometry" />
        </mxCell>
        <mxCell id="mlamauV0F4cwYC3OsQqX-14" value="End" style="ellipse;whiteSpace=wrap;html=1;" vertex="1" parent="1">
          <mxGeometry x="354" y="460" width="120" height="40" as="geometry" />
        </mxCell>
      </root>
    </mxGraphModel>
  </diagram>
</mxfile>
